<svg xmlns="http://www.w3.org/2000/svg" version="1.1" height="208" width="120" viewBox="0 0 120 208" class="diagram" text-anchor="middle" font-family="monospace" font-size="13px">
<path d="M 8,16 L 8,48" fill="none" stroke="black"/>
<path d="M 8,144 L 8,176" fill="none" stroke="black"/>
<path d="M 24,48 L 24,144" fill="none" stroke="black"/>
<path d="M 40,144 L 40,176" fill="none" stroke="black"/>
<path d="M 80,144 L 80,176" fill="none" stroke="black"/>
<path d="M 96,48 L 96,144" fill="none" stroke="black"/>
<path d="M 112,16 L 112,48" fill="none" stroke="black"/>
<path d="M 112,144 L 112,176" fill="none" stroke="black"/>
<path d="M 8,16 L 112,16" fill="none" stroke="black"/>
<path d="M 8,48 L 112,48" fill="none" stroke="black"/>
<path d="M 16,112 L 32,112" fill="none" stroke="black"/>
<path d="M 88,112 L 104,112" fill="none" stroke="black"/>
<path d="M 8,144 L 40,144" fill="none" stroke="black"/>
<path d="M 80,144 L 112,144" fill="none" stroke="black"/>
<path d="M 8,176 L 40,176" fill="none" stroke="black"/>
<path d="M 80,176 L 112,176" fill="none" stroke="black"/>
<polygon class="arrowhead" points="104,88 92,82.4 92,93.6 " fill="black" transform="rotate(90,96,88)"/>
<polygon class="arrowhead" points="32,88 20,82.4 20,93.6 " fill="black" transform="rotate(90,24,88)"/>
<g class="text">
<text x="60" y="36">Binder</text>
<text x="24" y="164">A</text>
<text x="96" y="164">B</text>
</g>
</svg>
